<svg width="100" height="100" viewBox="0 0 100 100" fill="none" xmlns="http://www.w3.org/2000/svg">
<circle cx="50" cy="50" r="50" fill="#001427"/>
<path d="M28.6606 32.4562V43.6562H31.4446V32.4562H28.6606ZM32.6606 43.6562C33.8872 43.6562 34.9486 43.4269 35.8446 42.9682C36.7406 42.5096 37.4339 41.8642 37.9246 41.0322C38.4152 40.1896 38.6606 39.1976 38.6606 38.0562C38.6606 36.9042 38.4152 35.9122 37.9246 35.0802C37.4339 34.2482 36.7406 33.6029 35.8446 33.1442C34.9486 32.6856 33.8872 32.4562 32.6606 32.4562H30.4526V34.8562H32.5646C32.9912 34.8562 33.4019 34.9096 33.7966 35.0162C34.2019 35.1229 34.5539 35.2989 34.8526 35.5442C35.1619 35.7896 35.4072 36.1202 35.5886 36.5362C35.7699 36.9416 35.8606 37.4482 35.8606 38.0562C35.8606 38.6642 35.7699 39.1762 35.5886 39.5922C35.4072 39.9976 35.1619 40.3229 34.8526 40.5682C34.5539 40.8136 34.2019 40.9896 33.7966 41.0962C33.4019 41.2029 32.9912 41.2562 32.5646 41.2562H30.4526V43.6562H32.6606Z" fill="#FFBD00"/>
<path d="M42.1549 41.4962H48.0749L47.8989 39.4323H42.3469L42.1549 41.4962ZM45.0829 36.5682L46.6669 40.2002L46.5709 40.8882L47.9149 43.6562H50.9869L45.0829 31.7522L39.1949 43.6562H42.2509L43.6429 40.7762L43.5149 40.1842L45.0829 36.5682ZM70.8744 66.6562H76.5224V64.4322H70.8744V66.6562ZM70.8744 57.6802H76.5224V55.4562H70.8744V57.6802ZM70.8744 61.8562H76.2024V59.6802H70.8744V61.8562ZM69.0824 55.4562V66.6562H71.6744V55.4562H69.0824Z" fill="#CDB4DB"/>
<path d="M54.9606 38.5842L58.0966 43.6562H61.2646L57.7606 38.5842H54.9606ZM52.1606 32.4562V43.6562H54.8646V32.4562H52.1606ZM53.8566 34.7442H56.0486C56.4112 34.7442 56.7206 34.8029 56.9766 34.9202C57.2432 35.0376 57.4459 35.2082 57.5846 35.4323C57.7232 35.6456 57.7926 35.9069 57.7926 36.2162C57.7926 36.5256 57.7232 36.7922 57.5846 37.0162C57.4459 37.2296 57.2432 37.3949 56.9766 37.5122C56.7206 37.6189 56.4112 37.6722 56.0486 37.6722H53.8566V39.7682H56.2406C57.2006 39.7682 58.0006 39.6136 58.6406 39.3042C59.2806 38.9949 59.7659 38.5682 60.0966 38.0242C60.4272 37.4696 60.5926 36.8349 60.5926 36.1202C60.5926 35.3949 60.4272 34.7602 60.0966 34.2162C59.7659 33.6616 59.2806 33.2296 58.6406 32.9202C58.0006 32.6109 57.2006 32.4562 56.2406 32.4562H53.8566V34.7442Z" fill="#FFAFCC"/>
<path d="M62.5199 32.4562V43.6562H65.3199V32.4562H62.5199ZM69.1279 32.4562L64.5359 37.7842L69.2559 43.6562H72.5359L67.7519 37.7042L72.2959 32.4562H69.1279Z" fill="#CCD5AE"/>
<path d="M22.5249 57.8722H25.5969V66.6562H28.3009V57.8722H31.3889V55.4562H22.5249V57.8722Z" fill="#F07DEA"/>
<path d="M33.3657 61.9682H41.8457V59.5362H33.3657V61.9682ZM40.1337 55.4562V66.6562H42.8377V55.4562H40.1337ZM32.6137 55.4562V66.6562H35.3177V55.4562H32.6137Z" fill="#7FB77E"/>
<path d="M46.9838 66.6562H52.6318V64.4322H46.9838V66.6562ZM46.9838 57.6802H52.6318V55.4562H46.9838V57.6802ZM46.9838 61.8562H52.3118V59.6802H46.9838V61.8562ZM45.1918 55.4562V66.6562H47.7838V55.4562H45.1918Z" fill="#A66CFF"/>
<path d="M57.7124 60.9442L60.7684 65.6162L63.8404 60.9442L64.5124 66.6562H67.3604L65.5524 54.8962L60.7684 61.7282L56.0004 54.8962L54.1924 66.6562H57.0404L57.7124 60.9442Z" fill="#FFCB6B"/>
</svg>
